<svg width="59" height="59" viewBox="0 0 59 59" fill="none" xmlns="http://www.w3.org/2000/svg">
<path d="M28.7823 6C20.0823 6 13 13.0754 13 21.7754C13 29.4831 18.5731 35.9169 25.8677 37.2854V42.0531H21.7323C20.2715 42.0531 19.09 43.2392 19.09 44.6977C19.09 46.1562 20.2715 47.3423 21.7323 47.3423H25.8677V50.3123C25.8677 51.7731 27.0538 52.9569 28.5146 52.9569C29.9754 52.9569 31.1638 51.7685 31.1638 50.3123V47.3423H35.5069C36.9677 47.3423 38.1515 46.1515 38.1515 44.6977C38.1515 43.2323 36.9677 42.0531 35.5069 42.0531H31.1638V37.3708C38.7585 36.2169 44.5554 29.6631 44.5554 21.7754C44.5554 13.0754 37.4823 6 28.7823 6ZM28.7823 32.2592C22.9969 32.2592 18.2938 27.5538 18.2938 21.7708C18.2938 15.9877 22.9969 11.2823 28.7823 11.2823C34.5631 11.2823 39.2685 15.9877 39.2685 21.7708C39.2685 27.5538 34.5654 32.2592 28.7823 32.2592Z" fill="black"/>
</svg>
