<svg width="59" height="59" viewBox="0 0 59 59" fill="none" xmlns="http://www.w3.org/2000/svg">
<path d="M48.7454 12.1246C48.7318 12.1133 48.7136 12.1042 48.7045 12.0928C48.0918 11.4892 47.2432 11.251 46.458 11.3803L37.3765 11.4983C35.9401 11.5187 34.7919 12.6965 34.81 14.1329C34.8282 15.5648 35.9152 16.6336 37.4423 16.6971L40.4831 16.6585L36.0332 21.1085C33.3872 19.157 30.2012 18.1018 26.8496 18.1018C22.706 18.1018 18.8097 19.7152 15.8801 22.6448C9.83488 28.6923 9.83488 38.5339 15.8801 44.5814C18.8097 47.511 22.706 49.1244 26.8496 49.1244C30.9909 49.1244 34.8895 47.511 37.819 44.5814C43.1744 39.2215 43.7939 30.8866 39.6594 24.8482L44.3317 20.1895V23.591C44.3317 25.0275 45.4981 26.1893 46.9323 26.1893C48.3732 26.1893 49.5328 25.0252 49.5328 23.591V13.9695C49.5328 13.2796 49.2401 12.6125 48.7454 12.1246ZM34.1429 40.9053C30.2489 44.7993 23.4571 44.7993 19.5585 40.9053C15.5375 36.8865 15.5375 30.342 19.5585 26.3209C21.5078 24.3739 24.097 23.3006 26.8518 23.3006C29.609 23.3006 32.1936 24.3739 34.1474 26.3209C38.1662 30.3397 38.1662 36.8865 34.1429 40.9053Z" fill="white"/>
</svg>
